<?xml version="1.0" encoding="utf-8"?>
<!-- Generator: Adobe Illustrator 18.1.1, SVG Export Plug-In . SVG Version: 6.00 Build 0)  -->
<svg version="1.1" id="Layer_1" xmlns="http://www.w3.org/2000/svg" xmlns:xlink="http://www.w3.org/1999/xlink" x="0px" y="0px"
	 viewBox="0 0 792 612" enable-background="new 0 0 792 612" xml:space="preserve">
<g>
	<path fill="#1C75BC" d="M35.3,315.5c0-14.9,11.1-25.6,22.2-26c9.8-0.9,15.8,4.7,15.8,12.8c0,6.4-3.8,10.2-9.8,14.5
		c-4.3,3-7.7,6-7.7,10.7c0,9,14.1,16.2,41.8,14.1c33.3-3,65.3-20.9,88.8-37.1c-8.1-7.3-23.5-26.5-23.5-48.2
		c0.4-25.6,20.1-45.2,50.8-44.8c23,0.9,39.3,19.2,44.4,30.7c5.5-5.5,14.9-14.1,20.1-18.8c22.6-20.5,42.7-37.6,64-49.1
		c16.2-9,34.6-16.2,51.2-16.2c8.1,0,12.8,2.6,14.9,4.3c2.6,2.1,4.3,5.1,3,6c-0.9,0.4-1.7-0.9-4.7-3c-1.7-1.3-6-2.6-9.4-2.6
		c-4.7,0-9.4,1.3-13.7,4.7c-9.4,7.7-24.8,26-34.6,40.1c-26.5,36.7-55.5,80.7-79.8,120.4c6.8-0.4,15.4-3,23.9-7.3
		c9-4.7,20.1-13.2,26.9-19.6c2.1-2.1,3.4-2.1,4.3-1.3s-0.4,2.6-3.4,5.5c-6,5.5-15.8,13.7-26.5,19.2c-9,4.7-19.2,7.3-27.3,7.7
		c-6,6.4-10.2,9.4-16.6,10.7c-12.4,2.6-12-3-10.2-6c1.3-2.6,2.6-4.7,3.4-6.4c-7.7-0.9-20.5-4.7-27.7-7.7
		c-9.4-3.8-19.6-9.8-25.2-14.9c-16.2,11.5-54.2,36.3-94.3,39.3c-33.3,2.6-61-7.7-61-31.2V315.5z M213.7,217.8
		c-22.2,0-34.1,19.2-35,39.3c-0.9,17.9,8.5,35.4,14.1,42.3c9-7.3,19.6-16.2,31.2-26.5c10.2-9,20.5-18.4,30.3-27.3
		c-8.5-15.8-22.6-27.7-40.1-27.7H213.7z M218,318.1c6.8,3,20.1,7.3,27.7,8.1c3.4-6,11.1-17.5,12.8-20.5c3-6,3.4-19.6,2.6-31.6
		c-0.9-10.2-2.1-18.4-4.7-24.8c-10.2,9.4-20.5,18.8-29.9,27.3c-11.5,10.2-21.3,18.8-30.7,26.5C200.5,308.7,209.9,314.3,218,318.1z
		 M316.2,224.2c26-34.1,49.1-52.5,68.7-61.9v-0.4c-9.8,0.9-25.6,6.8-40.5,14.9c-20.1,11.1-40.6,29-57.2,44
		c-10.2,9.4-18.4,17.1-26.9,25.2c2.1,6,4.7,14.5,5.5,27.7c0.4,7.7,0,16.2-1.3,23.9C274.3,282.3,301.2,243.4,316.2,224.2z"/>
	<path fill="#ED1C24" d="M324.8,340.2l-0.4-1.2c0-0.4,0.3-1.1,0.9-2l5.6-1.1l7.9-1.4c0.6-0.3,1.1-0.8,1.3-1.3
		c0.4-0.8,0.6-3.3,0.6-7.3c0-21.6-0.1-34.1-0.4-37.5c-0.3-3.3-0.8-5.5-1.7-6.3c-0.9-0.9-3.2-1.6-6.9-2.1c-2.2-0.3-3.9-0.7-5.2-1.2
		l0.4-2.9c6.7-2.7,11.2-5.1,13.5-7.1c3.2-2.9,5.9-6.6,8.1-11.3l3.2,0.1c0.4,3.2,0.6,10.3,0.6,21.2l-0.1,1.6c0,0.4,0.1,1,0.2,1.8
		c2.4-4.4,5.4-8.4,9.1-12.1l2.2-2.2c0.9-1,1.8-1.8,2.6-2.4c4.5-2.7,7.8-4,9.9-4c2.8,0,5.1,0.9,6.9,2.8c1.8,1.9,2.7,4.2,2.7,6.9
		c0,2.2-0.6,3.9-1.9,5.1c-1.7,1.6-3.7,2.4-5.9,2.4c-1,0-3-0.5-6-1.6c-3-1.1-5-1.6-5.9-1.6c-1.8,0-3,0.3-3.7,0.9
		c-1.8,1.4-4,4.3-6.5,8.6c-2,3.2-3,6.2-3,9l0.5,15.8l0.2,19c0.2,2.2,0.4,3.6,0.8,4.2c0.3,0.4,0.9,1,1.9,1.6c6.9,0.6,11,1,12.2,1.2
		c0.9,0.1,1.6,0.1,2,0.2c2.7,0.1,4.7,0.4,5.7,1.1c0.6,0.3,0.9,0.8,0.9,1.4c0,0.4-0.3,0.9-0.8,1.5l-10.6-0.2l-4-0.1l-5.8,0.1h-9.7
		l-5.3,0.3L324.8,340.2z"/>
	<path fill="#F7941E" d="M417.4,245.4l3,0.1l0.4,9.1l-0.2,11.8c1.2,0.1,2,0.1,2.3,0.1c1.7,0,4.8-0.1,9.5-0.4c3-0.2,5.9-0.3,8.6-0.3
		c1.3,0,3.2,0,5.7,0.1c0.1,1.3,0.2,2.3,0.2,3.1c0,0.8-0.2,2.1-0.6,3.9h-1.6l-14.8,0.5l-7.4,0.2l-1.7,0.2c-0.5,1.6-0.8,3.4-0.8,5.5
		l0.3,14.3l-0.2,25.2c0,6.6,0.9,11,2.6,13.2c1.7,2.2,4.1,3.3,7.5,3.3c1.7,0,4.8-0.5,9.4-1.5c1.4-0.3,3.3-1.4,5.6-3.2h0.9
		c0.6,0,1,0.2,1.4,0.5c0.3,0.4,0.5,0.8,0.5,1.4l-0.1,0.7c-2.7,3-5.9,5.2-9.4,6.5c-3.5,1.4-8.2,2.1-14.1,2.1c-4.1,0-7.6-1-10.3-2.9
		c-2.7-1.9-4.4-4.2-5.2-6.8c-0.8-2.6-1.1-8.3-1.1-17.1l0.4-21.5l-0.1-10.3v-3.8c0-1.8-0.1-3.6-0.2-5.4l-1.6-0.1l-7.8,0.3l-0.8,0.1
		c-0.7,0-1.2-0.2-1.6-0.5c-0.4-0.3-0.5-0.7-0.5-1.1c0-0.8,0.2-1.4,0.7-1.9c0.5-0.5,1.9-1.2,4.3-2.2c1.7-0.7,3.6-2,5.8-4
		c2.2-1.9,4.1-4.1,5.6-6.5c0.8-1.3,1.8-3.7,3.2-7.3C416.1,248.4,416.9,246.5,417.4,245.4z"/>
	<path fill="#1C75BC" d="M452.7,272l0.1-2.8c4.1-1.2,6.4-1.9,6.7-2.1c2.3-1,4.7-2.6,7.2-4.7c2.5-2.1,4.6-4.5,6.4-7.1
		c0.8-0.1,1.4-0.2,1.8-0.2l1.1,0.1c0.3,3.1,0.4,5.3,0.4,6.7c0,0.3-0.1,1.8-0.2,4.3v5.1l0.1,27.5l-0.3,29.2c-0.1,2.4,0.3,4,1.1,4.9
		c0.8,0.9,3.3,2,7.4,3.1c2.5,0.7,4.5,1.3,5.7,1.8c0.2,0.4,0.3,0.8,0.3,1.1c0,0.4-0.2,0.9-0.5,1.4c-2.5-0.1-5.7-0.2-9.6-0.5
		c-5.3-0.4-8.8-0.7-10.5-0.7c-0.8,0-5.9,0.2-15.3,0.5c-1.9,0.1-3.8,0.2-5.5,0.5c-0.3,0-0.8-0.1-1.5-0.3c-0.3-0.4-0.5-0.8-0.5-1.1
		c0-0.9,0.6-1.6,1.8-2.1c0.3-0.1,3.5-0.9,9.7-2.2c2-0.4,3.4-1,4-1.9c1.1-1.3,1.6-3.5,1.6-6.4c0.1-4.9,0.2-18.3,0.2-40.3
		c0-4.4-0.2-7.1-0.6-8.2c-0.3-0.8-1.2-1.6-2.5-2.6C460,274,457.1,273,452.7,272z M460.7,222.4c0-2.1,0.8-3.9,2.4-5.4
		c1.6-1.5,3.6-2.3,5.9-2.3c2.4,0,4.4,0.9,6.2,2.6c1.8,1.7,2.7,3.6,2.7,5.5c0,2-0.9,3.8-2.7,5.6c-1.8,1.8-3.9,2.6-6.2,2.6
		c-2.4,0-4.3-0.8-5.9-2.4C461.5,227,460.7,225,460.7,222.4z"/>
	<path fill="#009444" d="M505.7,315.6c2.4,6.1,4.1,10,5.4,11.8c2.4,3.6,5.3,6.5,8.7,8.5c3.4,2,7,3,11,3c3.6,0,7.2-1.6,10.8-4.7
		c2.5-2.4,3.8-5.1,3.8-8.2c0-4.1-1.5-8-4.5-11.5c-3-3.4-8.7-6.7-17.1-9.9c-8.4-3.2-14-6.5-16.9-10.1c-2.9-3.6-4.3-7.6-4.3-12.2
		c0-4.3,1.2-8.2,3.5-11.5c2.4-3.3,5.6-5.8,9.7-7.5c4.1-1.7,8-2.5,11.5-2.5c4.5,0,8.6,0.4,12.2,1.1c3.6,0.7,6.7,1.8,9.3,3.2
		c0.5,3.2,0.9,8,1.2,14.3l0.2,3.1c-0.8,0.1-1.5,0.1-2.1,0.1h-1.3c-1.9-5.3-4.8-9.5-8.7-12.6c-3.9-3.1-7.8-4.6-11.6-4.6
		s-6.9,1.2-9.3,3.5c-2.4,2.3-3.5,5.4-3.5,9.1c0,2.9,1,5.4,2.9,7.6c1.9,2.2,6.4,4.8,13.4,7.6c7,2.9,12.2,5.5,15.4,8
		c3.2,2.5,5.6,5.4,7.1,8.9c1.5,3.5,2.3,6.9,2.3,10c0,4.4-1.4,8.5-4.3,12.3c-2.9,3.8-6.5,6.5-10.9,8.1c-4.4,1.6-8.3,2.3-11.7,2.3
		c-8.1,0-15.5-1.5-22.4-4.5c-0.6-0.5-1-1.5-1.1-2.9c0-0.6-0.1-1.5-0.2-2.8c-1-8.6-1.5-13.7-1.5-15.3c0-0.8,0.2-1.3,0.5-1.5
		C503.5,315.7,504.4,315.6,505.7,315.6z"/>
	<path fill="#1C75BC" d="M590.7,245.4l3,0.1l0.4,9.1l-0.2,11.8c1.2,0.1,2,0.1,2.3,0.1c1.7,0,4.8-0.1,9.5-0.4c3-0.2,5.9-0.3,8.6-0.3
		c1.3,0,3.2,0,5.7,0.1c0.1,1.3,0.2,2.3,0.2,3.1c0,0.8-0.2,2.1-0.6,3.9h-1.6l-14.8,0.5l-7.4,0.2l-1.7,0.2c-0.5,1.6-0.8,3.4-0.8,5.5
		l0.3,14.3l-0.2,25.2c0,6.6,0.9,11,2.6,13.2c1.7,2.2,4.1,3.3,7.5,3.3c1.7,0,4.8-0.5,9.4-1.5c1.4-0.3,3.3-1.4,5.6-3.2h0.9
		c0.6,0,1,0.2,1.4,0.5c0.3,0.4,0.5,0.8,0.5,1.4l-0.1,0.7c-2.7,3-5.9,5.2-9.4,6.5c-3.5,1.4-8.2,2.1-14.1,2.1c-4.1,0-7.6-1-10.3-2.9
		c-2.7-1.9-4.4-4.2-5.2-6.8c-0.8-2.6-1.1-8.3-1.1-17.1l0.4-21.5l-0.1-10.3v-3.8c0-1.8-0.1-3.6-0.2-5.4l-1.6-0.1l-7.8,0.3l-0.8,0.1
		c-0.7,0-1.2-0.2-1.6-0.5c-0.4-0.3-0.5-0.7-0.5-1.1c0-0.8,0.2-1.4,0.7-1.9c0.5-0.5,1.9-1.2,4.3-2.2c1.7-0.7,3.6-2,5.8-4
		c2.2-1.9,4.1-4.1,5.6-6.5c0.8-1.3,1.8-3.7,3.2-7.3C589.4,248.4,590.2,246.5,590.7,245.4z"/>
	<path fill="#ED1C24" d="M625.4,221.4v-2.1c1.8-0.6,3.8-1.2,5.9-1.8c3.2-1,7.9-2.6,14.2-4.7h4.5c0,3.1,0,4.8,0,5.3
		c0,52.4-0.2,83.6-0.5,93.6c-0.2,5.9-0.3,9.1-0.3,9.5c0,7.1,0.3,11.1,0.9,12c0.8,1.1,3.1,1.9,7,2.4c3.9,0.4,6.2,0.9,6.9,1.3
		c0.5,0.3,0.8,0.7,0.8,1.3c0,0.7-0.1,1.2-0.4,1.5c-0.3,0.3-0.8,0.4-1.6,0.4c-0.4,0-3.8-0.1-10-0.3l-12.5-0.4l-16.1,0.8
		c-1,0.1-1.8-0.1-2.3-0.6c-0.4-0.3-0.6-0.8-0.6-1.4c0-0.7,0.2-1.1,0.6-1.4c0.4-0.3,2.7-0.8,6.9-1.5c4.2-0.7,6.6-1.3,7.2-1.8
		c0.6-0.5,1-1.5,1.2-3.2c0.3-2.3,0.4-8.8,0.4-19.4l-0.1-22l0.3-22.7l-0.1-22.7l0.3-11.2c0-2.2-0.4-3.8-1.1-4.8c-0.7-1-2.2-2-4.5-2.9
		C629,223.1,626.7,222.1,625.4,221.4z"/>
	<path fill="#1C75BC" d="M666.4,264.6c1.4-0.1,2.6-0.2,3.5-0.2h4.6l6.2-0.2l8.1,0.3l6.6-0.2c3.5,0,6.7,0.2,9.5,0.7
		c0.3,0.6,0.4,1.1,0.4,1.5l-0.1,0.8c-1.3,0.6-3.4,1.1-6.2,1.3c-4,0.3-6.8,1-8.5,2.1l-0.2,1.1c0,0.6,0.3,1.6,0.8,2.9
		c0.3,0.8,0.7,1.9,1.2,3.4c1.4,4.7,4.4,13.9,9.1,27.4c3.4,9.8,6.5,18.2,9.4,25.2c1.8-3.9,3.8-8.7,6-14.6l8-22.7
		c1.9-4.9,3.3-9.9,4.2-14.9c0.4-2,0.6-3.5,0.6-4.7c0-1-0.4-1.8-1.2-2.7c-0.8-0.8-2.5-1.5-5-2.1c-4.5-1.1-7-1.9-7.4-2.2
		c-0.4-0.3-0.6-0.9-0.7-1.9c0.4-0.3,0.8-0.6,1.3-0.8h5.9l6.4,0.1l9.6-0.1l6.1,0.1l1.5-0.1c0.4,0,1.2,0.1,2.2,0.2
		c0.6,0.3,1,0.8,1,1.5c0,0.6-0.3,1.2-0.9,1.7l-1.9,0.3c-3.7,0.5-6.5,1.5-8.5,2.9c-1.1,0.8-2,2.4-2.8,4.8c-0.3,0.9-0.7,2-1.2,3.4
		c-0.3,0.8-0.8,2-1.4,3.8c-0.6,1.8-1.4,3.9-2.3,6.3l-1.1,2.7l-0.1,0.5L713,335.1l-11.8,32.2c-0.8,1.6-1.7,3.6-2.7,5.9
		c-2.4,4.5-3.9,7-4.3,7.5c-1.9,2.4-3.6,4-5,5l-4.9,2.1c-1,0.3-2,0.4-3.1,0.4c-2.9,0-5-0.6-6.3-1.9c-1.3-1.3-2-3-2-5.2
		c0-2.1,1-3.9,3-5.6c0.6-0.2,1.3-0.4,1.9-0.8l1.2-0.3c5.7,1,9.2,1.5,10.6,1.5c1.3-0.7,2.3-1.5,3-2.5c3.1-4.6,5.8-9.8,8.1-15.5
		c2.2-5.7,3.4-9.6,3.4-11.5c0-2.2-0.8-5.3-2.5-9.5l-10.6-28.1c-1.5-3.6-5.8-15.5-13.1-35.6c-0.4-1.3-1-2.2-1.7-2.9l-6.5-2.4l-2-0.4
		c-1.1-0.4-1.6-1.1-1.6-1.9L666.4,264.6z"/>
</g>
</svg>
